<svg xmlns="http://www.w3.org/2000/svg" xmlns:xlink="http://www.w3.org/1999/xlink" width="300" height="300" viewBox="40625905.40167639 3450082.291916917 16287.58375903964 8519.728645049501" preserveAspectRatio="xMinYMin meet"><g transform="matrix(1,0,0,-1,0,6908684.312478883)"><polyline fill="none" stroke="#66cc99" stroke-width="108.58389172693093" points="40641589.7415925,3457998.7767190393 40641564.528455764,3457987.0750569124 40641551.682611324,3457957.9368014038 40641532.874952495,3457946.434645019 40641486.13194068,3457917.1125297276 40641438.62223612,3457891.234726416 40641394.219187826,3457875.934072721 40641357.34876466,3457863.1897718594 40641308.01334101,3457823.6331660785 40641285.24362306,3457810.2657542247 40641230.470475,3457803.7177155805 40641095.09775124,3457814.6928012925 40641021.4044936,3457811.344037363 40640987.834793225,3457807.078242173 40640874.06071894,3457783.6748151104 40640686.44350322,3457697.527431022 40640612.81649443,3457656.18952613 40640579.36155626,3457635.818526752 40640439.96052764,3457538.948382848 40640372.33262747,3457496.7816192177 40640287.859446235,3457411.392683418 40640239.71473534,3457377.17398944 40640218.92956737,3457366.009736179 40640037.83884704,3457269.02109117 40640003.17887124,3457250.327204889 40639965.986029014,3457230.2017100654 40639742.89924949,3457119.468548286 40639588.19609786,3457049.2449655277 40639510.217354245,3457021.2180316825 40639446.32016123,3457005.787325533 40639421.613870814,3456999.8750274493 40639308.02778777,3456993.7844447284 40639127.55917114,3457000.1554362415 40639082.3877043,3457001.7989031374 40639036.5859956,3457003.256024571 40638966.13125607,3457002.0178055824 40638801.67389181,3456998.372570523 40638755.13470875,3457000.2716789665 40638640.675995275,3456993.938090095 40638462.10390607,3456989.4494061847 40638352.29674844,3456986.700514094 40638227.2875941,3456973.7841783706 40638176.34723669,3456965.5836974587 40638128.74253666,3456951.4235835844 40638069.694010295,3456930.636623791 40638009.91099656,3456902.6531758267 40637910.31352029,3456859.1780459234 40637794.76019954,3456802.8701154115 40637710.470322266,3456761.8806659835 40637644.17616536,3456733.1866237377 40637528.98474005,3456690.2795182993 40637321.51840409,3456638.0531528154 40637209.91598845,3456615.7480044854 40637182.06627201,3456602.2741845665 40637163.01866737,3456593.831826051 40636999.994530216,3456490.215107991 40636960.659818165,3456473.802885649 40636839.269689925,3456449.5878806156 40636782.879698254,3456434.5151013318 40636731.04262942,3456413.222989342 40636709.859337226,3456394.3645212003 40636630.95690906,3456309.6115681403 40636577.50821324,3456265.0797348158 40636525.48098086,3456221.8769206386 40636422.304267846,3456150.3627867647 40636353.65580916,3456096.0957215684 40636229.442068025,3455974.045849564 40636155.689056054,3455910.184196205 40636037.24101199,3455846.0005178764 40636018.25572533,3455833.5651588473 40635983.709482364,3455811.0071008285 40635914.92721609,3455747.7441789447 40635853.29597851,3455660.116531985 40635797.159009695,3455555.8958575646 40635783.49004898,3455536.753430793 40635759.93922317,3455505.2714474797 40635721.697810404,3455477.8672657874 40635685.57212119,3455460.032883924 40635571.65042462,3455432.3888172307 40635491.0628734,3455412.7694615535 40635249.48742542,3455354.029610931 40635205.72875705,3455343.434290664 40635110.67410723,3455309.3008776316 40634884.00230801,3455236.1617692085 40634427.71463349,3455104.363305482 40634380.65859542,3455091.4012108124 40634256.46393457,3455037.0021596183 40634178.0179329,3454977.339189382 40634081.11137028,3454880.7532282528 40634038.57570835,3454842.9616596657 40633748.05625088,3454585.289784535 40633724.7710311,3454568.569072912 40633684.57538688,3454539.5171170523 40633659.60869479,3454521.5641482132 40633611.778811105,3454491.0141109666 40633487.48864681,3454429.2671619593 40633399.972733095,3454399.1547663184 40633366.567188255,3454387.744577766 40633310.0467481,3454369.251368814 40633029.07913235,3454277.6800038684 40632964.530692525,3454256.8053723145 40632899.41511763,3454230.6451676576 40632861.34674328,3454224.237195335 40632838.80548181,3454211.3679100024 40632764.57051619,3454153.9217095193 40632688.84223714,3454111.2979146037 40632507.0083332,3453991.874049912 40632478.763635896,3453971.571821448 40632456.87622593,3453955.8667735946 40632312.45636959,3453852.2183227837 40632236.31481651,3453797.5908998474 40632180.530299634,3453757.9689168464 40632038.265027665,3453656.8463752684 40631945.406265646,3453590.9602320977 40631887.5682499,3453549.7781804004 40631854.52505352,3453526.321401917 40631803.93003006,3453490.4071217948 40631763.0752642,3453461.3437078306 40631646.936031215,3453378.544185736 40631496.17416337,3453271.2506817435 40631438.86952703,3453239.2756400127 40631275.28759617,3453152.2704254743 40631195.24578444,3453109.793892601 40631154.969051965,3453093.593147026 40631095.19389621,3453069.3734814525 40631008.01101658,3453034.259481947 40630959.66400982,3453014.7560497276 40630922.07954771,3452999.622820336 40630863.545832895,3452975.986057672 40630839.12874695,3452966.171352041 40630757.37743125,3452934.8775545605 40630604.06933335,3452876.3212155993 40630462.30692922,3452822.2770543387 40630404.43262792,3452800.1454288466 40630343.666472785,3452776.9393090173 40630317.38210586,3452766.832997894 40630158.285736434,3452706.135256619 40630045.99769831,3452663.23978557 40629970.56134732,3452635.336681115 40629602.30419231,3452499.539741377 40629459.89470935,3452451.478670845 40629435.333578534,3452443.2393128807 40629408.59366784,3452431.5383116086 40629227.446758464,3452352.3197513577 40629194.83201039,3452333.944535432 40629097.639842235,3452282.634436442 40628992.637210675,3452235.0810893914 40628952.43343807,3452216.8968363684 40628854.95939934,3452181.981971536 40628826.77744269,3452171.901660252 40628589.6434814,3452087.065477777 40628542.44121948,3452070.2561569954 40628504.70857504,3452056.7050169264 40628453.26494607,3452038.3153165835 40628394.6997883,3452017.1399450186 40628325.46471276,3451986.10832617 40628249.92805286,3451946.491680486 40628211.680377595,3451920.931624811 40628137.48835117,3451871.3335203403 40628090.651170105,3451828.8332478665 40628024.517272934,3451768.8145716046 40627952.663232945,3451703.7072015707 40627926.59565674,3451680.0538563463 40627881.09168577,3451638.770997562 40627686.81005611,3451462.639637927 40627653.39530522,3451432.038942489 40627626.418516606,3451407.4004991297 40627586.17433099,3451374.0803684033 40627512.836880386,3451313.2239374053 40627372.232029065,3451203.7676769663 40627269.15173674,3451123.5167165203 40627237.52801897,3451098.4645291157 40627056.01025072,3450954.719959912 40626912.80693771,3450841.3717211764 40626789.24955743,3450770.5282269213 40626740.71198075,3450746.3098537046 40626678.448015526,3450715.1785137146 40626618.939449765,3450685.5357598444 40626508.645519316,3450812.215066725 40626750.368466064,3450952.9234327036" opacity="0.8" /></g></svg>